<svg xmlns="http://www.w3.org/2000/svg" viewBox="0 0 58 80" x="0px" y="0px"><path fill="#000000" fill-rule="evenodd" d="M695.93341,944 L718,944 C718.552285,944 719,944.447715 719,945 L719,961 C719,961.552285 718.552285,962 718,962 L662,962 C661.447715,962 661,961.552285 661,961 L661,945 C661,944.447715 661.447715,944 662,944 L666.06659,944 L668.00237,915.931198 C668.038531,915.406861 668.474418,915 669,915 L675,915 C675.525582,915 675.961469,915.406861 675.99763,915.931198 L677.93341,944 L684.06659,944 L686.00237,915.931198 C686.038531,915.406861 686.474418,915 687,915 L693,915 C693.525582,915 693.961469,915.406861 693.99763,915.931198 L695.93341,944 Z M663,946 L663,960 L717,960 L717,946 L695,946 C694.474418,946 694.038531,945.593139 694.00237,945.068802 L692.06659,917 L687.93341,917 L685.99763,945.068802 C685.961469,945.593139 685.525582,946 685,946 L677,946 C676.474418,946 676.038531,945.593139 676.00237,945.068802 L674.06659,917 L669.93341,917 L667.99763,945.068802 C667.961469,945.593139 667.525582,946 667,946 L663,946 Z M672,955 C670.895431,955 670,954.104569 670,953 C670,951.895431 670.895431,951 672,951 C673.104569,951 674,951.895431 674,953 C674,954.104569 673.104569,955 672,955 Z M690,955 C688.895431,955 688,954.104569 688,953 C688,951.895431 688.895431,951 690,951 C691.104569,951 692,951.895431 692,953 C692,954.104569 691.104569,955 690,955 Z M681,955 C679.895431,955 679,954.104569 679,953 C679,951.895431 679.895431,951 681,951 C682.104569,951 683,951.895431 683,953 C683,954.104569 682.104569,955 681,955 Z M700,954 C699.447715,954 699,953.552285 699,953 C699,952.447715 699.447715,952 700,952 L710,952 C710.552285,952 711,952.447715 711,953 C711,953.552285 710.552285,954 710,954 L700,954 Z M690.780869,909.624695 C690.435859,910.055957 689.806567,910.125878 689.375305,909.780869 C688.944043,909.435859 688.874122,908.806567 689.219131,908.375305 C689.285996,908.291724 689.412114,908.099044 689.542921,907.826528 C690.058176,906.75308 690.058176,905.673502 689.219131,904.624695 C687.835954,902.895724 687.835954,901.012339 688.654032,899.30801 C688.856558,898.886081 689.063774,898.569502 689.219131,898.375305 C689.564141,897.944043 690.193433,897.874122 690.624695,898.219131 C691.055957,898.564141 691.125878,899.193433 690.780869,899.624695 C690.714004,899.708276 690.587886,899.900956 690.457079,900.173472 C689.941824,901.24692 689.941824,902.326498 690.780869,903.375305 C692.164046,905.104276 692.164046,906.987661 691.345968,908.69199 C691.143442,909.113919 690.936226,909.430498 690.780869,909.624695 Z M672.780869,909.624695 C672.435859,910.055957 671.806567,910.125878 671.375305,909.780869 C670.944043,909.435859 670.874122,908.806567 671.219131,908.375305 C671.285996,908.291724 671.412114,908.099044 671.542921,907.826528 C672.058176,906.75308 672.058176,905.673502 671.219131,904.624695 C669.835954,902.895724 669.835954,901.012339 670.654032,899.30801 C670.856558,898.886081 671.063774,898.569502 671.219131,898.375305 C671.564141,897.944043 672.193433,897.874122 672.624695,898.219131 C673.055957,898.564141 673.125878,899.193433 672.780869,899.624695 C672.714004,899.708276 672.587886,899.900956 672.457079,900.173472 C671.941824,901.24692 671.941824,902.326498 672.780869,903.375305 C674.164046,905.104276 674.164046,906.987661 673.345968,908.69199 C673.143442,909.113919 672.936226,909.430498 672.780869,909.624695 Z" transform="translate(-661 -898)"/><text x="0" y="79" fill="#000000" font-size="5px" font-weight="bold" font-family="'Helvetica Neue', Helvetica, Arial-Unicode, Arial, Sans-serif">Created by Andrejs Kirma</text><text x="0" y="84" fill="#000000" font-size="5px" font-weight="bold" font-family="'Helvetica Neue', Helvetica, Arial-Unicode, Arial, Sans-serif">from the Noun Project</text></svg>